<svg width="1482" height="201" viewBox="0 0 1482 201" fill="none" xmlns="http://www.w3.org/2000/svg">
<path d="M1086.49 0.889962C1096.83 -0.0146892 1114.91 0.523928 1125.58 0.5384L1189.05 0.446603C1229.98 0.57048 1238.27 19.9721 1237.36 57.1693C1236.94 74.64 1235.59 84.6872 1222.28 97.8196C1222.5 97.9588 1222.71 98.1025 1222.93 98.2503C1230.31 103.433 1236.83 114.425 1237.51 123.411C1239.7 152.633 1242.98 192.43 1205.3 198.745C1200.49 199.489 1194.01 199.646 1189.1 199.535C1154.52 198.404 1118.43 201.357 1084.08 198.734C1047.49 195.94 1049.41 149.805 1051.85 123.572C1052.85 112.852 1058.49 104.029 1066.92 97.8919C1060.03 91.0257 1054.12 82.2475 1053.26 72.3226C1050.55 41.1533 1048.23 7.56007 1086.49 0.889962ZM1185.05 114.245C1158.43 114.638 1129.39 112.819 1102.86 114.144C1098.22 114.951 1092.96 115.619 1090.04 119.778C1084.79 127.242 1085.35 142.744 1086.9 151.449C1087.49 154.753 1088.74 159.657 1091.69 161.682C1099.18 166.804 1174.43 164.461 1188.47 164.436C1198.43 162.96 1203.25 158.358 1203.08 147.764C1202.84 132.773 1206.41 113.931 1185.05 114.245ZM1184.69 35.4066C1157.23 36.0947 1127.45 33.9486 1100.17 35.4759C1096.4 36.366 1091.62 37.765 1089.68 41.5628C1085.28 50.1811 1085.89 62.8214 1087.49 72.1361C1089.12 81.6167 1096.26 83.0684 1104.66 83.4554C1119.35 84.1318 1134.24 83.5481 1148.97 83.7298C1160.43 83.5159 1178.97 84.3956 1189.73 83.0814C1204.74 79.17 1202.4 69.6408 1202.84 56.1243C1203.23 43.8258 1197.98 35.0139 1184.69 35.4066Z" fill="black"/>
<path d="M1403.11 0.518898C1425.28 0.433934 1459.95 -4.38737 1473.11 17.1312C1479.81 28.0906 1479.78 39.6811 1479.93 51.9173C1480.16 71.1245 1479.58 83.155 1465.28 97.5843C1472.75 103.773 1479.4 113.317 1480.11 123.238C1482.27 153.696 1485.98 192.665 1446.92 198.945C1442.85 199.412 1437.63 199.574 1433.51 199.495C1398.87 198.409 1361.43 201.241 1327.07 198.759C1290.39 196.109 1292.33 150.416 1294.61 124.119C1295.58 112.849 1301.02 104.302 1309.68 97.9056C1302.37 90.5273 1296.42 81.1418 1295.75 70.4417C1293.85 40.2448 1291.31 6.18487 1330.1 0.840187C1333.72 0.683523 1337.35 0.583055 1340.98 0.539405L1403.11 0.518898ZM1439.5 117.104C1427.08 112.228 1401.57 114.009 1387.48 113.974C1374.1 113.942 1358.37 113.383 1345.47 114.162C1329.64 116.905 1329.17 123.051 1329.02 138.255C1328.89 151.143 1328.01 164.135 1344.93 164.232C1373.77 164.499 1403.18 164.912 1432.03 164.382C1437.2 163.337 1439.16 163.177 1442.53 159.235C1448.04 152.802 1447.64 120.293 1439.5 117.104ZM1437.86 37.4476C1431.2 33.5527 1356.45 34.8541 1343.73 35.4203C1330.17 38.0953 1329.56 45.3947 1329.19 57.5443C1328.77 71.3801 1329.57 83.802 1346.83 83.4017C1373.87 82.7741 1405.42 85.5961 1432.08 83.1996C1436.2 82.1708 1440.17 81.4192 1442.52 77.4867C1446.71 70.4607 1446.58 55.5374 1444.57 47.6771C1443.57 43.7848 1441.45 39.5477 1437.86 37.4476Z" fill="black"/>
<path d="M309.403 3.74187C349.991 3.42113 397.968 -2.94761 403.312 51.9606C406.403 83.725 406.634 125.552 402.215 157.365C398.558 183.697 381.385 195.552 356.064 199.003C355.964 199.014 355.863 199.026 355.762 199.036C340.733 200.591 287.417 200.499 273.44 198.149C265.744 196.854 256.73 194.365 250.599 189.366C237.721 178.866 232.943 161.293 231.293 145.442C229.829 131.376 230.258 117.035 230.247 102.911C230.229 77.9114 227.009 41.2391 243.883 20.5231C253.107 9.19911 266.936 5.48611 280.788 4.07C280.868 4.05374 280.95 4.0401 281.032 4.028C288.678 2.85733 301.311 3.73659 309.403 3.74187ZM360.363 42.318C349.902 36.4558 296.467 38.3863 282.497 39.3649C277.002 40.7814 272.58 42.3452 269.553 47.4704C263.376 57.9298 263.823 135.325 267.279 148.527C268.357 152.645 270.507 158.922 274.448 161.186C281.969 165.507 343.474 165.181 353.653 163.311C358.667 161.934 362.712 160.642 365.395 155.899C367.841 151.572 368.668 145.295 369.162 140.365C370.672 125.276 371.192 66.236 367.548 53.3727C366.32 49.035 364.456 44.6117 360.363 42.318Z" fill="black"/>
<path d="M478.755 3.90951C491.574 3.12664 510.472 3.82006 523.775 3.7142C541.821 4.20221 560.156 2.42581 578.045 5.1683C628.317 12.8753 626.366 65.3109 625.966 104.431C625.651 135.214 628.042 170.311 599.705 190.151C594.527 193.132 588.959 195.376 583.163 196.819C563.803 201.71 538.209 198.878 517.565 199.485C504.935 199.856 479.382 201.909 468.441 194.877C466.382 193.554 461.379 187.11 461.248 184.531C460.165 163.3 460.659 141.659 460.675 120.336L460.751 54.2835C460.769 43.3052 460.713 32.0815 460.904 21.0951C460.949 18.5098 462.19 15.8679 463.532 13.6898C467.326 7.5311 472.084 5.57087 478.755 3.90951ZM589.265 59.2288C587.92 35.6388 556.881 38.749 539.594 38.8382L495.297 38.8949L495.298 164.108L539.23 164.172C551.678 164.212 573.939 166.404 583.175 157.187C583.334 157.028 583.49 156.866 583.64 156.699C595.524 138.654 590.553 81.8312 589.265 59.2288Z" fill="black"/>
<path d="M140.498 157.106C141.069 108.127 139.851 58.1264 141.023 9.16814C141.067 7.34838 142.88 5.21015 144.435 4.30715C150.305 3.23859 166.647 2.77455 171.825 5.36691C175.911 7.41287 174.73 31.4841 174.734 36.2029V82.2417L174.713 139.093C174.717 150.82 174.947 162.577 174.343 174.291C173.641 187.903 171.964 195.908 157.469 199.385C145.678 199.677 126.076 202.418 118.609 191.962C109.127 178.682 101.914 163.529 93.5814 149.472C73.5026 115.599 55.6314 79.4228 34.9269 46.0053C34.437 64.3392 36.5072 190.306 33.6095 195.858C32.7412 197.522 31.9177 198.264 30.0948 198.813C24.1181 200.613 9.39223 200.877 3.89685 197.923C2.50839 197.178 1.44141 196.446 0.989607 194.856C-0.882301 188.269 0.474917 144.699 0.482297 135.008L0.485513 67.1333C0.488889 54.5055 0.265461 41.7949 0.767981 29.1813C1.28534 16.1927 2.80349 7.54587 16.8058 3.97446C25.3962 3.43797 38.8263 3.138 47.2532 4.51574C50.8119 5.0976 53.8524 6.80332 56.0035 9.73349C64.9462 21.9159 72.8887 37.5019 80.3774 50.8379L117.923 117.731C124.88 130.121 132.928 145.307 140.498 157.106Z" fill="black"/>
<path d="M852.807 48.5009L853.773 49.157C857.91 64.1705 855.641 111.536 856.01 129.305C855.586 147.923 853.655 172.533 839.139 186.321C820.659 203.869 786.933 199.065 763.216 199.495C740.096 199.913 713.684 202.141 696.488 184.159C692.799 179.42 691.522 177.191 688.689 171.869C696.564 166.866 709.969 155.922 718.144 149.913C719.549 153.144 720.936 156.666 723.467 159.201C730.353 166.093 749.736 164.185 758.709 164.206C772.354 164.237 806.033 167.416 815.43 157.737C823.901 149.011 820.777 86.238 820.745 72.8877C830.825 64.7088 842.358 56.3607 852.807 48.5009Z" fill="black"/>
<path d="M731.782 4.07858C736.885 3.32636 753.12 3.72835 758.906 3.786C772.385 3.92002 786.438 3.33595 799.855 3.76862C818.115 4.3574 830.158 7.56639 842.86 21.0244C833.212 28.5497 823.414 35.8906 813.483 43.043C798.842 35.2442 754.682 39.8568 737.002 39.1914C723.146 38.67 719.097 48.7394 716.949 60.7276C715.818 78.4813 716.281 98.4172 716.325 116.369C704.961 124.833 693.093 133.445 682.129 142.355C680.975 129.978 681.3 115.293 681.516 102.787C682.263 59.3549 675.087 10.1554 731.782 4.07858Z" fill="black"/>
<path d="M945.178 67.8005C965.582 63.5869 985.546 76.7141 989.801 97.1478C994.056 117.581 981 137.609 960.612 141.923C940.161 146.252 920.079 133.119 915.809 112.615C911.538 92.1109 924.703 72.0288 945.178 67.8005Z" fill="black"/>
</svg>
